PathFileType	4	(X/Y/Z)	Kaydara	
DataRate	CameraRate	NumFrames	NumMarkers	Units	OrigDataRate	OrigDataStartFrame	OrigNumFrames	
60.00	60.00	4	74	mm	60.00	770	250	
Frame#	Time	N_lasi			N_rasi			N_rpsi			N_lpsi			N_fneck			N_bneck			N_fhead			N_rhead			N_lhead			N_rshld			N_relbtop			N_relbext			N_relblow			N_rwrext			N_rwrtop			N_rwrlow			N_lshld			N_lelbext			N_lelblow			N_lelbtop			N_lwrext			N_lwrtop			N_lwrlow			N_rtopleg			N_ltopleg			N_rkneefr			N_rkneebk			N_rkneeis			N_lkneefr			N_lknssbk			N_lkneeis			N_rankfr			N_rankis			N_rankbk			N_lankfr			N_lankbk			N_lankis			D_lasi			D_rasi			D_rpsi			D_lpsi			D_fneck			D_bneck			D_fhead			D_rhead			D_lhead			D_rshld			D_relbtop			D_relbext			D_relblow			D_rwrext			D_rwrtop			D_rwrlow			D_lshld			D_lelbext			D_lelblow			D_lelbtop			D_lwrext			D_lwrtop			D_lwrlow			D_rtopleg			D_ltopleg			D_rkneefr			D_rkneebk			D_rkneeis			D_lkneefr			D_lknssbk			D_lkneeis			D_rankfr			D_rankis			D_rankbk			D_lankfr			D_lankbk			D_lankis			
		X1	Y1	Z1	X2	Y2	Z2	X3	Y3	Z3	X4	Y4	Z4	X5	Y5	Z5	X6	Y6	Z6	X7	Y7	Z7	X8	Y8	Z8	X9	Y9	Z9	X10	Y10	Z10	X11	Y11	Z11	X12	Y12	Z12	X13	Y13	Z13	X14	Y14	Z14	X15	Y15	Z15	X16	Y16	Z16	X17	Y17	Z17	X18	Y18	Z18	X19	Y19	Z19	X20	Y20	Z20	X21	Y21	Z21	X22	Y22	Z22	X23	Y23	Z23	X24	Y24	Z24	X25	Y25	Z25	X26	Y26	Z26	X27	Y27	Z27	X28	Y28	Z28	X29	Y29	Z29	X30	Y30	Z30	X31	Y31	Z31	X32	Y32	Z32	X33	Y33	Z33	X34	Y34	Z34	X35	Y35	Z35	X36	Y36	Z36	X37	Y37	Z37	X38	Y38	Z38	X39	Y39	Z39	X40	Y40	Z40	X41	Y41	Z41	X42	Y42	Z42	X43	Y43	Z43	X44	Y44	Z44	X45	Y45	Z45	X46	Y46	Z46	X47	Y47	Z47	X48	Y48	Z48	X49	Y49	Z49	X50	Y50	Z50	X51	Y51	Z51	X52	Y52	Z52	X53	Y53	Z53	X54	Y54	Z54	X55	Y55	Z55	X56	Y56	Z56	X57	Y57	Z57	X58	Y58	Z58	X59	Y59	Z59	X60	Y60	Z60	X61	Y61	Z61	X62	Y62	Z62	X63	Y63	Z63	X64	Y64	Z64	X65	Y65	Z65	X66	Y66	Z66	X67	Y67	Z67	X68	Y68	Z68	X69	Y69	Z69	X70	Y70	Z70	X71	Y71	Z71	X72	Y72	Z72	X73	Y73	Z73	X74	Y74	Z74	

219	12.817	-269.11169	1091.41342	1326.23993	-292.78402	1116.67702	1579.64569	-571.74316	1168.99498	1598.81287	-545.99609	1150.13046	1240.49728	-340.25623	1524.83749	1406.34613	-443.05370	1625.72098	1436.54892	-202.92414	1682.08466	1374.50943	-369.98756	1726.82404	1484.93332	-364.81384	1712.65503	1327.63153	-430.86140	1477.41974	1681.24405	-513.77800	1164.36752	1770.99854	-499.81110	1134.92088	1847.34909	-426.81320	1164.57558	1753.26172	-441.59248	861.08078	1795.71671	-399.99260	861.67229	1770.25467	-408.90404	861.05743	1723.40317	-459.60403	1472.92877	1181.19095	-454.61864	1116.37466	1218.55896	-394.93435	1132.76695	1141.29845	-483.34656	1126.42494	1138.71445	-412.79263	833.65860	1143.38150	-365.88100	828.39882	1151.28403	-372.69588	830.14343	1204.24477	-402.80846	958.27400	1685.42084	-480.71800	971.77048	1201.62148	-310.41580	514.92729	1597.93518	-453.23299	512.18372	1610.43106	-375.60238	496.72802	1486.58081	-286.59342	463.41682	1305.74936	-399.13120	526.62609	1265.63782	-389.23168	495.95894	1407.30118	-399.22745	113.96625	1642.93472	-387.42935	114.00396	1563.85544	-471.77250	98.13695	1579.11880	-572.10705	220.22594	1310.87662	-632.67071	271.34201	1285.87921	-607.25605	254.80564	1370.92529	-862.41501	1025.76920	-57.25473	-1004.46632	1038.30345	-308.14322	-801.33469	1132.13745	-363.83106	-700.00412	1120.15465	-168.72311	-954.41345	1515.78522	-152.45394	-859.50012	1596.43951	-217.69617	-1032.23000	1680.47043	-53.55897	-979.75555	1724.73434	-224.31686	-869.20090	1713.21716	-115.96251	-994.47044	1471.68381	-378.71349	-927.45689	1151.25748	-486.06525	-927.52548	1133.55614	-414.94320	-1014.19304	1158.52379	-474.68983	-993.43155	906.62216	-523.12317	-1043.71262	905.04265	-493.62438	-1012.41035	905.56221	-448.91380	-737.94876	1478.82553	-30.11175	-745.88463	1142.56348	-44.03882	-714.00894	1182.43690	43.70376	-670.51804	1143.91037	-13.54981	-769.12468	933.83965	92.63570	-809.15863	951.64352	103.24823	-834.02817	954.66072	58.28452	-965.18112	985.97733	-399.94743	-716.02852	995.36194	-81.19993	-1091.63696	490.47100	-222.07012	-1047.81982	487.24831	-323.39844	-961.87546	457.59666	-234.24412	-771.70197	434.50703	-186.89737	-669.95743	493.80627	-200.84770	-766.57188	460.49820	-285.26678	-1151.60667	151.17271	-232.95124	-1086.68297	137.04508	-217.21325	-1106.53244	131.08434	-297.26849	-626.82289	147.94622	-312.08126	-553.02887	165.55899	-316.64698	-617.98157	171.10531	-375.20123 
220	12.833	-260.09138	1093.42117	1326.07864	-277.22006	1118.60809	1580.42633	-559.63715	1174.85100	1607.24213	-537.20798	1154.91478	1248.72887	-326.11176	1527.77130	1409.68597	-428.90923	1628.65448	1439.88876	-190.53572	1685.20676	1372.06741	-354.98074	1729.71786	1485.84381	-353.50628	1714.93149	1328.84995	-411.64902	1481.20331	1685.07645	-491.85513	1168.62465	1779.65485	-478.13362	1139.71848	1854.99649	-405.38120	1169.91356	1759.89960	-414.67140	865.28992	1796.28174	-372.47375	867.53990	1771.70853	-380.20840	868.43628	1724.84100	-452.47238	1475.52048	1185.37254	-453.26916	1119.13361	1221.02943	-395.08232	1134.62151	1141.33186	-483.75015	1130.06508	1142.30072	-422.62070	836.86363	1137.87285	-376.12915	828.92319	1145.97816	-382.77218	830.53543	1198.68042	-388.47973	958.61504	1685.47653	-471.75732	977.43126	1204.85382	-308.02376	513.72520	1598.87482	-451.09932	513.74416	1612.32208	-377.12975	498.37811	1483.33481	-260.18311	473.99334	1301.82281	-376.34808	533.14945	1266.18904	-362.11678	504.08051	1406.69266	-399.36714	114.32161	1643.55881	-387.86961	114.38036	1564.21387	-472.07047	98.85345	1579.63150	-538.20515	222.16158	1319.99084	-601.22448	271.53296	1297.20840	-571.27995	255.73608	1381.27136	-873.50189	1026.86295	-50.73713	-1020.02876	1039.38881	-298.59026	-819.77608	1134.30389	-357.51545	-713.82149	1121.35727	-164.83368	-968.06770	1517.19788	-146.10910	-874.59625	1597.85660	-213.42611	-1043.27003	1681.96991	-45.20704	-995.39124	1726.54739	-217.02635	-881.85188	1714.80301	-111.56840	-1013.02917	1471.98914	-371.35571	-951.20598	1149.62921	-477.60853	-948.71025	1132.07817	-407.12376	-1037.55791	1157.88727	-464.21337	-1020.43686	905.11932	-510.08884	-1070.16327	904.65309	-479.39953	-1038.41515	905.63828	-434.75952	-748.13721	1480.20477	-28.67143	-754.64783	1143.32329	-44.22163	-720.53795	1183.33054	42.92171	-678.34038	1146.51802	-16.40253	-764.69704	931.91551	91.07868	-804.85954	947.76405	102.97351	-831.55518	950.35347	58.85550	-982.03468	987.70622	-392.12299	-727.40013	995.99648	-77.47783	-1104.89304	491.68743	-215.41862	-1062.38983	489.63417	-317.31504	-975.61020	460.15087	-230.54686	-787.52556	431.80546	-171.66094	-687.39090	494.38145	-190.12545	-785.78300	457.87743	-270.42971	-1156.97403	149.45148	-230.86740	-1091.74644	136.93646	-215.37333	-1111.60973	131.29231	-295.67938	-633.99525	151.58916	-304.92075	-561.23749	173.08144	-311.66061	-627.66788	175.95179	-368.12668 
221	12.850	-250.04473	1095.42480	1325.29617	-261.08162	1120.15564	1582.07153	-545.00679	1178.36433	1614.37042	-528.79211	1159.17641	1254.25453	-312.07203	1530.21240	1412.76093	-414.82914	1631.14609	1443.17368	-178.16753	1687.67715	1369.01291	-340.18250	1732.13196	1486.86829	-342.34985	1716.87042	1329.95300	-392.17293	1484.34891	1688.05908	-469.67388	1172.68890	1788.12683	-456.54640	1143.97430	1861.65939	-384.38797	1174.36081	1764.75433	-386.51897	869.81499	1795.08118	-344.28493	873.69438	1771.58630	-351.28304	876.21521	1724.11499	-445.69241	1478.20648	1189.42223	-451.95179	1122.32208	1222.85614	-395.20580	1136.95084	1140.81154	-484.24255	1134.08920	1145.15343	-431.48590	840.63774	1132.95044	-385.41740	830.56282	1141.18843	-394.67957	830.80566	1196.12251	-374.33090	958.99612	1684.68628	-463.14533	982.28340	1207.33765	-307.25361	513.31192	1599.01993	-448.99788	515.00839	1613.61130	-375.54932	498.11687	1485.94864	-235.34985	484.06635	1298.08578	-354.98665	538.32092	1266.33659	-334.77913	510.79678	1405.00229	-399.57394	114.64168	1644.42566	-388.08998	114.99294	1564.25903	-472.48295	99.49161	1580.16418	-502.40704	221.65226	1328.43887	-568.14091	268.20410	1307.30835	-535.94574	255.29093	1391.32767	-884.16748	1029.11255	-44.30984	-1034.96902	1041.74759	-289.34725	-836.15143	1137.73087	-352.70687	-726.65863	1123.38318	-161.24023	-981.53282	1519.48410	-139.41686	-889.64844	1600.08194	-208.85832	-1053.80440	1684.14337	-36.47699	-1010.47829	1728.83240	-209.39495	-894.11110	1716.77719	-107.16876	-1031.79787	1473.17963	-363.32523	-975.47203	1149.18251	-468.27667	-971.33514	1132.06268	-397.81097	-1061.35635	1158.40530	-452.54890	-1047.87979	904.83620	-496.20079	-1096.68823	905.45395	-464.16409	-1063.82408	906.20071	-420.56213	-758.19626	1482.69196	-27.59775	-763.66806	1145.14565	-44.37149	-727.08366	1185.23834	41.93605	-686.62422	1150.09773	-19.48111	-759.60030	931.34438	88.44788	-800.07317	945.34477	102.02265	-827.91306	947.18491	58.57719	-998.83698	991.78108	-383.26130	-737.98637	996.94481	-73.32843	-1119.08745	492.57229	-211.52496	-1075.89996	492.45079	-312.15273	-989.95872	463.69808	-225.23451	-805.45586	429.59694	-153.37729	-707.56981	494.96120	-176.84183	-807.85042	455.16991	-252.50477	-1160.85396	148.46893	-230.04387	-1094.91570	137.70332	-215.39812	-1115.37682	132.13129	-295.21854	-643.93951	156.58217	-295.82872	-572.57530	182.20480	-305.00635	-640.70389	181.94355	-358.99036 
222	12.867	-240.84187	1097.14272	1327.32315	-246.20178	1120.90347	1582.31903	-528.72242	1180.25757	1619.68231	-519.53346	1162.37839	1260.11703	-298.37610	1532.00745	1413.68988	-400.90771	1633.05420	1445.84778	-166.03863	1689.24591	1365.80719	-324.96006	1733.98438	1487.34177	-331.10146	1718.01483	1330.41534	-372.80041	1487.47345	1690.95535	-447.39037	1176.51138	1796.80573	-434.64882	1147.97142	1867.90421	-362.87636	1178.53287	1768.56461	-357.45434	874.59610	1792.68799	-315.07305	880.01137	1769.67636	-322.65057	883.92685	1722.61002	-439.01672	1480.70587	1193.08861	-450.74043	1125.71190	1224.27795	-395.73494	1139.43886	1140.55344	-484.54121	1138.35732	1146.93375	-439.22234	844.75037	1128.31375	-393.81653	832.66975	1137.14806	-403.03017	832.84828	1191.44302	-356.29375	958.96446	1685.89462	-452.60593	985.15205	1209.07860	-304.54189	512.26097	1600.37994	-446.94473	516.28815	1614.36554	-374.66362	498.80405	1485.90530	-212.21653	493.62389	1294.94293	-334.84585	542.30419	1266.07529	-307.57153	518.24841	1406.81976	-399.78394	114.69815	1644.49310	-388.30162	115.39911	1564.48013	-472.58995	99.78642	1580.24811	-465.04574	219.09643	1335.86487	-533.52783	262.21722	1315.90591	-496.34811	249.94492	1397.57050	-893.27881	1030.94284	-39.00002	-1049.85214	1044.43375	-280.73429	-852.21252	1141.49391	-343.72559	-739.57687	1125.41481	-157.30600	-994.75929	1522.06223	-132.30894	-904.44931	1602.29889	-204.21778	-1063.78456	1686.70029	-27.61944	-1025.01938	1731.21033	-201.65442	-905.93620	1718.82416	-102.81914	-1050.63560	1475.21179	-354.41185	-1000.02792	1149.61159	-458.49926	-994.55757	1133.49045	-387.88162	-1085.09178	1159.75784	-439.88701	-1075.67886	905.76736	-481.09715	-1123.39989	907.43141	-447.76573	-1089.11766	908.04977	-405.03891	-768.00102	1485.94727	-26.41681	-773.50937	1148.27469	-43.56474	-733.23502	1188.04733	40.53233	-694.67583	1154.62852	-23.02048	-754.53827	932.18086	84.89324	-794.77676	944.40903	100.29083	-824.58687	945.39101	58.08749	-1014.10484	996.48056	-374.85813	-748.22052	997.51907	-69.26021	-1132.15782	492.78572	-208.08844	-1088.46214	495.19005	-307.42085	-1002.52007	467.01290	-219.72858	-825.60593	428.44990	-132.70157	-729.39255	495.73170	-161.10619	-832.30606	452.51801	-232.09883	-1164.57260	148.03148	-229.57788	-1098.09731	139.07084	-215.18730	-1118.95401	133.35489	-295.22079	-656.95366	162.40265	-284.71584	-587.12452	192.32357	-296.36362	-656.96808	188.82597	-347.79804 
